<!DOCTYPE svg PUBLIC "-//W3C//DTD SVG 20010904//EN" "http://www.w3.org/TR/2001/REC-SVG-20010904/DTD/svg10.dtd">
<svg version="1.0" xmlns="http://www.w3.org/2000/svg" width="180px" height="180px" viewBox="0 0 5120 5120" preserveAspectRatio="xMidYMid meet">
<g id="layer101" fill="#ff5352" stroke="none">
<path d="M3800 2851 c-170 -55 -259 -200 -248 -403 9 -146 78 -261 193 -318 44 -22 63 -25 160 -25 100 0 115 2 160 27 105 55 167 145 187 272 28 182 -49 354 -189 423 -47 23 -72 28 -147 30 -50 1 -102 -1 -116 -6z m168 -194 c44 -45 55 -250 17 -331 -29 -61 -104 -71 -145 -19 -31 40 -43 100 -38 198 6 136 41 191 113 179 17 -2 40 -15 53 -27z"/>
<path d="M2751 2813 c-6 -21 -48 -182 -95 -359 -48 -176 -86 -326 -86 -332 0 -8 33 -12 108 -12 l107 0 50 206 50 206 16 -69 c10 -37 32 -130 50 -205 l32 -138 92 0 92 0 53 207 54 207 50 -207 50 -207 88 0 c48 0 88 3 88 8 0 4 -43 168 -95 366 -52 197 -95 360 -95 362 0 2 -45 4 -99 4 l-99 0 -21 -77 c-11 -43 -33 -129 -48 -190 -15 -62 -30 -109 -34 -105 -4 4 -26 89 -50 190 l-43 182 -103 0 -102 0 -10 -37z"/>
<path d="M4330 2480 l0 -372 208 4 c203 3 208 4 264 31 133 65 208 224 187 396 -14 120 -89 230 -194 281 -47 24 -60 25 -257 28 l-208 3 0 -371z m336 184 c24 -11 41 -32 60 -70 23 -46 26 -64 22 -126 -6 -124 -58 -188 -150 -188 l-38 0 0 200 0 200 36 0 c20 0 51 -7 70 -16z"/>
</g>
<g id="layer102" fill="#ffffff" stroke="none">
<path d="M1790 2949 l0 -81 45 6 c54 9 115 -2 122 -20 3 -8 -40 -131 -96 -275 -56 -143 -101 -265 -101 -270 0 -6 48 -8 116 -7 l117 3 40 133 c22 73 44 129 48 125 3 -5 25 -65 49 -135 l42 -128 79 0 c43 0 79 3 79 7 0 13 -213 588 -230 623 -38 75 -93 100 -220 100 l-90 0 0 -81z"/>
<path d="M1040 2851 c-153 -47 -237 -212 -189 -371 20 -65 97 -144 167 -170 84 -32 206 -25 280 15 94 51 142 133 143 240 1 133 -62 230 -179 275 -55 21 -170 26 -222 11z m134 -144 c35 -25 48 -168 22 -232 -27 -64 -96 -56 -116 13 -13 47 -13 127 0 174 15 53 56 73 94 45z"/>
<path d="M140 2480 l0 -370 115 0 115 0 0 135 0 135 85 0 85 0 0 -135 0 -135 120 0 120 0 0 370 0 370 -120 0 -120 0 0 -145 0 -145 -85 0 -85 0 0 145 0 145 -115 0 -115 0 0 -370z"/>
<path d="M1500 2480 l0 -370 110 0 110 0 0 370 0 370 -110 0 -110 0 0 -370z"/>
<path d="M2337 2033 c-4 -3 -7 -13 -7 -21 0 -17 -62 -91 -167 -197 -82 -82 -77 -63 -73 -267 l2 -107 -44 -3 c-41 -3 -43 -5 -46 -35 l-3 -33 555 0 556 0 0 35 c0 35 -1 35 -42 35 l-43 0 0 143 c0 164 -4 175 -71 225 -25 19 -60 57 -79 86 -18 29 -45 60 -58 69 -14 9 -28 30 -32 47 l-7 30 -217 0 c-120 0 -221 -3 -224 -7z m134 -224 c22 -22 20 -36 -12 -105 -23 -50 -23 -58 0 -111 20 -43 62 -73 101 -73 35 0 78 31 90 64 7 17 16 39 21 48 6 13 3 29 -11 55 -11 21 -23 53 -26 72 -6 28 -3 38 16 53 32 26 59 22 117 -17 29 -19 59 -35 66 -35 8 0 22 -11 31 -25 9 -14 27 -27 41 -31 18 -4 25 -13 25 -31 0 -14 7 -46 16 -72 l17 -46 -32 -58 -33 -57 -341 0 -342 0 -32 59 -32 58 19 56 c11 31 20 63 20 72 0 8 4 15 10 15 5 0 25 14 43 30 19 17 39 30 43 30 5 0 34 16 64 35 62 40 91 44 121 14z"/>
<path d="M1762 1612 c-9 -7 -12 -56 -10 -213 l3 -204 33 -3 c60 -6 62 0 62 212 0 136 -4 196 -12 204 -14 14 -57 16 -76 4z"/>
<path d="M1886 1604 c-13 -13 -16 -45 -16 -195 0 -105 4 -188 10 -200 12 -22 68 -27 88 -7 17 17 17 389 0 406 -17 17 -64 15 -82 -4z"/>
<path d="M3152 1612 c-10 -7 -13 -56 -13 -205 0 -109 3 -202 6 -207 9 -14 69 -12 83 2 17 17 17 389 0 406 -14 14 -57 16 -76 4z"/>
<path d="M3282 1611 c-10 -6 -13 -54 -13 -205 0 -108 3 -201 6 -206 9 -14 69 -12 83 2 17 17 17 389 0 406 -14 14 -57 16 -76 3z"/>
<path d="M1683 1513 c-7 -3 -13 -20 -13 -39 0 -24 -5 -34 -15 -34 -20 0 -21 -66 -1 -77 8 -4 16 -21 18 -38 2 -22 8 -30 23 -30 19 0 20 8 23 106 3 108 -2 123 -35 112z"/>
<path d="M3402 1508 c-14 -14 -17 -185 -3 -207 15 -23 41 -5 41 28 0 16 6 31 15 35 20 7 20 72 1 79 -8 3 -16 20 -18 38 -3 36 -17 46 -36 27z"/>
</g>


</svg>